<?xml version="1.0" encoding="utf-8"?>
<svg width="1024" height="1024" viewBox="0 0 1024 1024" xmlns="http://www.w3.org/2000/svg" xmlns:bx="https://boxy-svg.com">
  <defs>
    <bx:export>
      <bx:file format="png"/>
    </bx:export>
  </defs>
  <path d="M 88.762 295.129 L 932.169 295.129 C 947.779 295.129 950.249 303.108 939.562 319.061 L 803.928 483.591 C 785.843 505.529 762.825 516.497 734.877 516.497 L 685.556 516.497 C 660.895 516.497 642.81 528.962 631.301 553.89 C 621.437 575.828 620.615 602.751 628.836 634.659 L 757.072 634.659 C 771.869 634.659 779.267 643.634 779.267 661.582 L 779.267 751.326 L 241.659 751.326 L 241.659 661.582 C 241.659 643.634 249.057 634.659 263.854 634.659 L 392.091 634.659 C 400.31 602.751 399.489 575.828 389.624 553.89 C 378.115 528.962 360.031 516.497 335.37 516.497 L 286.048 516.497 C 258.099 516.497 235.082 505.529 216.998 483.591 L 81.363 319.061 C 70.676 303.108 73.142 295.129 88.762 295.129 Z" stroke-linejoin="round" stroke-linecap="round" style="paint-order: fill; stroke: rgb(0, 0, 0); fill: none; stroke-width: 34px;"/>
</svg>